<svg xmlns="http://www.w3.org/2000/svg" width="1200" height="630" viewBox="0 0 1200 630" role="img" aria-labelledby="title desc">
<title id="title">SkillCheck — проверка финансовых навыков</title><desc id="desc">Пять финансовых направлений, Skill Card и добровольный рейтинг.</desc>
<defs><linearGradient id="bg" x2="1" y2="1"><stop stop-color="#0b0d12"/><stop offset="1" stop-color="#171a29"/></linearGradient><linearGradient id="a" x2="1"><stop stop-color="#3976f6"/><stop offset="1" stop-color="#7164ff"/></linearGradient><filter id="b"><feGaussianBlur stdDeviation="70"/></filter></defs>
<rect width="1200" height="630" rx="32" fill="url(#bg)"/><circle cx="1040" cy="110" r="250" fill="#7164ff" opacity=".2" filter="url(#b)"/><circle cx="1050" cy="560" r="230" fill="#3976f6" opacity=".14" filter="url(#b)"/>
<g transform="translate(70 65)" font-family="Arial,sans-serif"><rect width="46" height="46" rx="14" fill="url(#a)"/><path d="m13 24 7 7 14-16" fill="none" stroke="#fff" stroke-width="4" stroke-linecap="round" stroke-linejoin="round"/><text x="62" y="34" fill="#f7f7f5" font-size="30" font-weight="700">SkillCheck</text><text y="175" fill="#f7f7f5" font-size="66" font-weight="700">Навыки, которые</text><text y="251" fill="#f7f7f5" font-size="66" font-weight="700">можно подтвердить</text><text y="317" fill="#a7afc2" font-size="28">5 направлений · Skill Card · рейтинг</text><rect y="385" width="286" height="64" rx="18" fill="url(#a)"/><text x="28" y="426" fill="#fff" font-size="23" font-weight="700">Контролируемый пилот</text></g>
<g transform="translate(840 185)" font-family="Arial,sans-serif"><rect width="285" height="350" rx="30" fill="#f7f7f5"/><text x="28" y="54" fill="#121521" font-size="21" font-weight="700">Skill Card</text><text x="28" y="86" fill="#687086" font-size="14">Financial Analyst Junior</text><circle cx="142" cy="174" r="61" fill="none" stroke="#e1e4ec" stroke-width="16"/><path d="M142 113a61 61 0 1 1-58 80" fill="none" stroke="url(#a)" stroke-width="16" stroke-linecap="round"/><text x="142" y="183" text-anchor="middle" fill="#121521" font-size="35" font-weight="700">82</text><text x="142" y="207" text-anchor="middle" fill="#687086" font-size="12">из 100</text><rect x="28" y="272" width="229" height="12" rx="6" fill="#e1e4ec"/><rect x="28" y="272" width="188" height="12" rx="6" fill="#2dcb9a"/><rect x="28" y="305" width="229" height="12" rx="6" fill="#e1e4ec"/><rect x="28" y="305" width="156" height="12" rx="6" fill="#7164ff"/></g></svg>
